<svg xmlns="http://www.w3.org/2000/svg" xmlns:xlink="http://www.w3.org/1999/xlink" xmlns:inkscape="http://www.inkscape.org/namespaces/inkscape" version="1.1" width="258" height="67" viewBox="0 0 258 67">
<defs>
<path id="font_1_1" d="M.6589966 .23046875C.6759949 .23046875 .69400027 .23046875 .69400027 .25045777 .69400027 .27046205 .6759949 .27046205 .6589966 .27046205H.117996219C.100997928 .27046205 .08299255 .27046205 .08299255 .25045777 .08299255 .23046875 .100997928 .23046875 .117996219 .23046875H.6589966Z"/>
<path id="font_2_3" d="M.44898988 .20022583C.44898988 .3193512 .36698915 .41944886 .25898744 .41944886 .21099854 .41944886 .16799927 .40345765 .13198853 .36842347V.5637665C.1519928 .5577698 .18499756 .55078127 .21699524 .55078127 .33999635 .55078127 .4099884 .6417694 .4099884 .6547699 .4099884 .6607666 .40699769 .6657715 .3999939 .6657715 .39898683 .6657715 .39698792 .6657715 .3919983 .66278079 .37199403 .6537781 .32299806 .6337738 .2559967 .6337738 .21598816 .6337738 .16999817 .6407776 .12298584 .6617737 .114990238 .66477969 .11299133 .66477969 .11099243 .66477969 .100997928 .66477969 .100997928 .6567688 .100997928 .6407776V.34439088C.100997928 .32637025 .100997928 .31835938 .114990238 .31835938 .12199402 .31835938 .12399292 .32136537 .12799073 .32736207 .13899231 .3433838 .17599488 .39746095 .25698854 .39746095 .30899049 .39746095 .33399964 .35139466 .34199525 .33337403 .35798646 .29632569 .3600006 .25727845 .3600006 .20722962 .3600006 .17222595 .3600006 .11222839 .33599855 .07035828 .31199647 .031463624 .2749939 .0055389406 .22898865 .0055389406 .1559906 .0055389406 .09899902 .058380128 .08198547 .11723328 .084991458 .1162262 .08799744 .115234378 .09899902 .115234378 .13198853 .115234378 .14898682 .14022827 .14898682 .16423035 .14898682 .18823242 .13198853 .21322632 .09899902 .21322632 .084991458 .21322632 .049987794 .20622254 .049987794 .16023255 .049987794 .07434082 .11898804-.022460938 .23098755-.022460938 .34700013-.022460938 .44898988 .073349 .44898988 .20022583Z"/>
<path id="font_2_2" d="M.1269989 .07699585 .23298645 .18003845C.3889923 .31811524 .44898988 .3721466 .44898988 .47216798 .44898988 .5860901 .35899354 .6660156 .23699951 .6660156 .12399292 .6660156 .049987794 .57411196 .049987794 .48516847 .049987794 .4291687 .099990848 .4291687 .102996829 .4291687 .11999512 .4291687 .15499878 .44117738 .15499878 .48217774 .15499878 .5081787 .13699341 .5341797 .101989749 .5341797 .09399414 .5341797 .09199524 .5341797 .08898926 .5331726 .11199951 .59806826 .1659851 .63500979 .22399903 .63500979 .31498719 .63500979 .35798646 .5541382 .35798646 .47216798 .35798646 .39215089 .30799867 .31311036 .25299073 .25108338L.06098938 .036987306C.049987794 .025985718 .049987794 .023986817 .049987794 0H.42099L.44898988 .17404175H.42399598C.4189911 .14402771 .4119873 .1000061 .4019928 .084991458 .394989 .07699585 .32899476 .07699585 .30699159 .07699585H.1269989Z"/>
<path id="font_2_1" d="M.45999146 .31976319C.45999146 .39982606 .45498658 .47988893 .41999818 .5539398 .37399293 .65000918 .2919922 .6660156 .25 .6660156 .18998719 .6660156 .116989139 .64001467 .07598877 .54693606 .04399109 .47789 .038986207 .39982606 .038986207 .31976319 .038986207 .24472046 .042999269 .15464783 .083999637 .07859802 .1269989-.0024719239 .19999695-.022460938 .24899292-.022460938 .30299378-.022460938 .3789978-.0014648438 .4229889 .09359741 .45498658 .16265869 .45999146 .2407074 .45999146 .31976319M.24899292-.00047302247C.20999146-.00047302247 .15098572 .024551392 .1329956 .12062073 .12199402 .18066406 .12199402 .2727356 .12199402 .3317871 .12199402 .39582826 .12199402 .46188355 .12998963 .5159149 .14898682 .63500979 .22399903 .64401248 .24899292 .64401248 .28199769 .64401248 .34799195 .6259918 .36698915 .52693179 .3769989 .47088624 .3769989 .39482118 .3769989 .3317871 .3769989 .25672914 .3769989 .18867493 .3659973 .12461853 .35099793 .029556275 .2939911-.00047302247 .24899292-.00047302247Z"/>
<path id="font_3_1" d="M.5159912 .68333438C.5159912 .6843262 .5159912 .69433596 .5029907 .69433596 .48799134 .69433596 .3929901 .68533328 .37599183 .68333438 .36799623 .6823273 .3619995 .6773224 .3619995 .6643219 .3619995 .6523285 .37098695 .6523285 .38598634 .6523285 .43399049 .6523285 .43598939 .6453247 .43598939 .6353302L.43299867 .6153412 .37298585 .37835694C.35499574 .41537477 .32598878 .4423828 .2809906 .4423828 .1639862 .4423828 .039993287 .29533387 .039993287 .14929199 .039993287 .055267335 .09498596-.0107421879 .17298889-.0107421879 .19299317-.0107421879 .24299622-.0067443849 .30299378 .06427002 .31098939 .022247315 .34599305-.0107421879 .3939972-.0107421879 .42900086-.0107421879 .45199586 .012252808 .46798707 .044265748 .4850006 .08027649 .49798585 .14129639 .49798585 .14329529 .49798585 .1532898 .4889984 .1532898 .48599244 .1532898 .47599793 .1532898 .47499085 .14929199 .47200013 .13528443 .45498658 .07026672 .43699647 .011245728 .3959961 .011245728 .36898805 .011245728 .3659973 .037261964 .3659973 .057266237 .3659973 .08126831 .36799623 .088272098 .37199403 .105285648L.5159912 .68333438M.30799867 .119277957C.30299378 .10127258 .30299378 .09927368 .28799439 .08227539 .24398804 .027252198 .20298767 .011245728 .1749878 .011245728 .125 .011245728 .11099243 .06626892 .11099243 .105285648 .11099243 .1552887 .14299011 .27833558 .1659851 .32434083 .19699097 .38336183 .24198914 .42037965 .28199769 .42037965 .34700013 .42037965 .36099244 .3383484 .36099244 .33235169 .36099244 .32633973 .35899354 .32034303 .35798646 .31533814L.30799867 .119277957Z"/>
<path id="font_2_4" d="M.68699648 .32714845C.70199587 .32714845 .72099307 .32714845 .72099307 .34713746 .72099307 .36714173 .70199587 .36714173 .6879883 .36714173H.08898926C.07499695 .36714173 .055999757 .36714173 .055999757 .34713746 .055999757 .32714845 .07499695 .32714845 .08999634 .32714845H.68699648M.6879883 .13284302C.70199587 .13284302 .72099307 .13284302 .72099307 .15284729 .72099307 .17285156 .70199587 .17285156 .68699648 .17285156H.08999634C.07499695 .17285156 .055999757 .17285156 .055999757 .15284729 .055999757 .13284302 .07499695 .13284302 .08898926 .13284302H.6879883Z"/>
</defs>
<path transform="matrix(1.00006,0,0,-1,171.38419,51.551)" stroke-width=".79701" stroke-linecap="butt" stroke-miterlimit="10" stroke-linejoin="miter" fill="none" stroke="#000000" d="M-170.08086 0H85.04042"/>
<path transform="matrix(1.00006,0,0,-1,171.38419,51.551)" d="M-138.74521 0C-138.74521 1.6507-140.08333 2.98883-141.73404 2.98883-143.38475 2.98883-144.72287 1.6507-144.72287 0-144.72287-1.6507-143.38475-2.98883-141.73404-2.98883-140.08333-2.98883-138.74521-1.6507-138.74521 0ZM-141.73404 0" fill="#0000ff"/>
<path transform="matrix(1.00006,0,0,-1,171.38419,51.551)" stroke-width=".3985" stroke-linecap="butt" stroke-miterlimit="10" stroke-linejoin="miter" fill="none" stroke="#000000" d="M-138.74521 0C-138.74521 1.6507-140.08333 2.98883-141.73404 2.98883-143.38475 2.98883-144.72287 1.6507-144.72287 0-144.72287-1.6507-143.38475-2.98883-141.73404-2.98883-140.08333-2.98883-138.74521-1.6507-138.74521 0ZM-141.73404 0"/>
<use data-text="&#x2212;" xlink:href="#font_1_1" transform="matrix(9.963197,0,0,-9.9626,23.276307,65.476)"/>
<use data-text="5" xlink:href="#font_2_3" transform="matrix(9.963197,0,0,-9.9626,31.025757,65.476)"/>
<path transform="matrix(1.00006,0,0,-1,171.38419,51.551)" d="M-53.70479 0C-53.70479 1.6507-55.04291 2.98883-56.69362 2.98883-58.34431 2.98883-59.68245 1.6507-59.68245 0-59.68245-1.6507-58.34431-2.98883-56.69362-2.98883-55.04291-2.98883-53.70479-1.6507-53.70479 0ZM-56.69362 0" fill="#0000ff"/>
<path transform="matrix(1.00006,0,0,-1,171.38419,51.551)" stroke-width=".3985" stroke-linecap="butt" stroke-miterlimit="10" stroke-linejoin="miter" fill="none" stroke="#000000" d="M-53.70479 0C-53.70479 1.6507-55.04291 2.98883-56.69362 2.98883-58.34431 2.98883-59.68245 1.6507-59.68245 0-59.68245-1.6507-58.34431-2.98883-56.69362-2.98883-55.04291-2.98883-53.70479-1.6507-53.70479 0ZM-56.69362 0"/>
<use data-text="&#x2212;" xlink:href="#font_1_1" transform="matrix(9.963197,0,0,-9.9626,108.32141,65.476)"/>
<use data-text="2" xlink:href="#font_2_2" transform="matrix(9.963197,0,0,-9.9626,116.07086,65.476)"/>
<path transform="matrix(1.00006,0,0,-1,171.38419,51.551)" d="M2.98883 0C2.98883 1.6507 1.6507 2.98883 0 2.98883-1.6507 2.98883-2.98883 1.6507-2.98883 0-2.98883-1.6507-1.6507-2.98883 0-2.98883 1.6507-2.98883 2.98883-1.6507 2.98883 0ZM0 0" fill="#0000ff"/>
<path transform="matrix(1.00006,0,0,-1,171.38419,51.551)" stroke-width=".3985" stroke-linecap="butt" stroke-miterlimit="10" stroke-linejoin="miter" fill="none" stroke="#000000" d="M2.98883 0C2.98883 1.6507 1.6507 2.98883 0 2.98883-1.6507 2.98883-2.98883 1.6507-2.98883 0-2.98883-1.6507-1.6507-2.98883 0-2.98883 1.6507-2.98883 2.98883-1.6507 2.98883 0ZM0 0"/>
<use data-text="0" xlink:href="#font_2_1" transform="matrix(9.963197,0,0,-9.9626,168.89304,65.476)"/>
<path transform="matrix(1.00006,0,0,-1,171.38419,51.551)" d="M59.68245 0C59.68245 1.6507 58.34431 2.98883 56.69362 2.98883 55.04291 2.98883 53.70479 1.6507 53.70479 0 53.70479-1.6507 55.04291-2.98883 56.69362-2.98883 58.34431-2.98883 59.68245-1.6507 59.68245 0ZM56.69362 0" fill="#0000ff"/>
<path transform="matrix(1.00006,0,0,-1,171.38419,51.551)" stroke-width=".3985" stroke-linecap="butt" stroke-miterlimit="10" stroke-linejoin="miter" fill="none" stroke="#000000" d="M59.68245 0C59.68245 1.6507 58.34431 2.98883 56.69362 2.98883 55.04291 2.98883 53.70479 1.6507 53.70479 0 53.70479-1.6507 55.04291-2.98883 56.69362-2.98883 58.34431-2.98883 59.68245-1.6507 59.68245 0ZM56.69362 0"/>
<use data-text="2" xlink:href="#font_2_2" transform="matrix(9.963197,0,0,-9.9626,225.59044,65.476)"/>
<path transform="matrix(1.00006,0,0,-1,171.38419,51.551)" d="M-56.5154 11.24944C-55.61879 13.04276-53.70479 13.92885-50.71596 13.92885-50.18991 13.92885-50.18991 14.72589-50.71596 14.72589-53.70479 14.72589-55.97522 13.22096-56.87183 11.42764-56.98944 11.19238-56.63301 11.01419-56.5154 11.24944"/>
<path transform="matrix(1.00006,0,0,-1,171.38419,51.551)" d="M-28.52501 17.4053C-29.42163 15.61198-31.33563 14.72589-34.32446 14.72589-34.8505 14.72589-34.8505 13.92885-34.32446 13.92885-31.33563 13.92885-29.0652 15.43379-28.1686 17.2271-28.05096 17.46236-28.4074 17.64055-28.52501 17.4053"/>
<path transform="matrix(1.00006,0,0,-1,171.38419,51.551)" stroke-width=".79701" stroke-linecap="butt" stroke-miterlimit="10" stroke-linejoin="miter" fill="none" stroke="#000000" d="M-50.71596 14.32738H-34.32446"/>
<path transform="matrix(1.00006,0,0,-1,171.38419,51.551)" d="M-28.52501 17.2271C-27.6284 15.43379-25.35797 13.92885-22.36914 13.92885-21.84311 13.92885-21.84311 14.72589-22.36914 14.72589-25.35797 14.72589-27.27197 15.61198-28.1686 17.4053-28.28621 17.64055-28.64264 17.46236-28.52501 17.2271"/>
<path transform="matrix(1.00006,0,0,-1,171.38419,51.551)" d="M.1782 11.42764C-.7184 13.22096-2.98883 14.72589-5.97766 14.72589-6.5037 14.72589-6.5037 13.92885-5.97766 13.92885-2.98883 13.92885-1.07481 13.04276-.1782 11.24944-.0606 11.01419 .29582 11.19238 .1782 11.42764"/>
<path transform="matrix(1.00006,0,0,-1,171.38419,51.551)" stroke-width=".79701" stroke-linecap="butt" stroke-miterlimit="10" stroke-linejoin="miter" fill="none" stroke="#000000" d="M-22.36914 14.32738H-5.97766"/>
<path transform="matrix(1.00006,0,0,-1,171.38419,51.551)" stroke-width=".79701" stroke-linecap="butt" stroke-miterlimit="10" stroke-linejoin="miter" fill="none" stroke="#000000" d=""/>
<use data-text="d" xlink:href="#font_3_1" transform="matrix(9.963197,0,0,-9.9626,131.30979,30.515999)"/>
<use data-text="=" xlink:href="#font_2_4" transform="matrix(9.963197,0,0,-9.9626,139.26325,30.515999)"/>
<use data-text="2" xlink:href="#font_2_2" transform="matrix(9.963197,0,0,-9.9626,149.76447,30.515999)"/>
<path transform="matrix(1.00006,0,0,-1,171.38419,51.551)" d="M.1782 11.24944C1.07481 13.04276 2.98883 13.92885 5.97766 13.92885 6.5037 13.92885 6.5037 14.72589 5.97766 14.72589 2.98883 14.72589 .7184 13.22096-.1782 11.42764-.29582 11.19238 .0606 11.01419 .1782 11.24944"/>
<path transform="matrix(1.00006,0,0,-1,171.38419,51.551)" d="M28.1686 17.4053C27.27197 15.61198 25.35797 14.72589 22.36914 14.72589 21.84311 14.72589 21.84311 13.92885 22.36914 13.92885 25.35797 13.92885 27.6284 15.43379 28.52501 17.2271 28.64264 17.46236 28.28621 17.64055 28.1686 17.4053"/>
<path transform="matrix(1.00006,0,0,-1,171.38419,51.551)" stroke-width=".79701" stroke-linecap="butt" stroke-miterlimit="10" stroke-linejoin="miter" fill="none" stroke="#000000" d="M5.97766 14.32738H22.36914"/>
<path transform="matrix(1.00006,0,0,-1,171.38419,51.551)" d="M28.1686 17.2271C29.0652 15.43379 31.33563 13.92885 34.32446 13.92885 34.8505 13.92885 34.8505 14.72589 34.32446 14.72589 31.33563 14.72589 29.42163 15.61198 28.52501 17.4053 28.4074 17.64055 28.05096 17.46236 28.1686 17.2271"/>
<path transform="matrix(1.00006,0,0,-1,171.38419,51.551)" d="M56.87183 11.42764C55.97522 13.22096 53.70479 14.72589 50.71596 14.72589 50.18991 14.72589 50.18991 13.92885 50.71596 13.92885 53.70479 13.92885 55.61879 13.04276 56.5154 11.24944 56.63301 11.01419 56.98944 11.19238 56.87183 11.42764"/>
<path transform="matrix(1.00006,0,0,-1,171.38419,51.551)" stroke-width=".79701" stroke-linecap="butt" stroke-miterlimit="10" stroke-linejoin="miter" fill="none" stroke="#000000" d="M34.32446 14.32738H50.71596"/>
<path transform="matrix(1.00006,0,0,-1,171.38419,51.551)" stroke-width=".79701" stroke-linecap="butt" stroke-miterlimit="10" stroke-linejoin="miter" fill="none" stroke="#000000" d=""/>
<use data-text="d" xlink:href="#font_3_1" transform="matrix(9.963197,0,0,-9.9626,188.00719,30.515999)"/>
<use data-text="=" xlink:href="#font_2_4" transform="matrix(9.963197,0,0,-9.9626,195.96065,30.515999)"/>
<use data-text="2" xlink:href="#font_2_2" transform="matrix(9.963197,0,0,-9.9626,206.46187,30.515999)"/>
<path transform="matrix(1.00006,0,0,-1,171.38419,51.551)" d="M-141.55583 33.92697C-140.65921 35.72029-138.74521 36.60638-135.75638 36.60638-135.23035 36.60638-135.23035 37.40343-135.75638 37.40343-138.74521 37.40343-141.01564 35.8985-141.91226 34.10518-142.02988 33.86992-141.67345 33.69173-141.55583 33.92697"/>
<path transform="matrix(1.00006,0,0,-1,171.38419,51.551)" d="M-71.04524 40.08284C-71.94185 38.28952-73.85585 37.40343-76.84468 37.40343-77.37071 37.40343-77.37071 36.60638-76.84468 36.60638-73.85585 36.60638-71.58542 38.11133-70.68881 39.90463-70.5712 40.1399-70.92761 40.31808-71.04524 40.08284"/>
<path transform="matrix(1.00006,0,0,-1,171.38419,51.551)" stroke-width=".79701" stroke-linecap="butt" stroke-miterlimit="10" stroke-linejoin="miter" fill="none" stroke="#000000" d="M-135.75638 37.00491H-76.84468"/>
<path transform="matrix(1.00006,0,0,-1,171.38419,51.551)" d="M-71.04524 39.90463C-70.14862 38.11133-67.87819 36.60638-64.88936 36.60638-64.36333 36.60638-64.36333 37.40343-64.88936 37.40343-67.87819 37.40343-69.7922 38.28952-70.68881 40.08284-70.80643 40.31808-71.16286 40.1399-71.04524 39.90463"/>
<path transform="matrix(1.00006,0,0,-1,171.38419,51.551)" d="M.1782 34.10518C-.7184 35.8985-2.98883 37.40343-5.97766 37.40343-6.5037 37.40343-6.5037 36.60638-5.97766 36.60638-2.98883 36.60638-1.07481 35.72029-.1782 33.92697-.0606 33.69173 .29582 33.86992 .1782 34.10518"/>
<path transform="matrix(1.00006,0,0,-1,171.38419,51.551)" stroke-width=".79701" stroke-linecap="butt" stroke-miterlimit="10" stroke-linejoin="miter" fill="none" stroke="#000000" d="M-64.88936 37.00491H-5.97766"/>
<path transform="matrix(1.00006,0,0,-1,171.38419,51.551)" stroke-width=".79701" stroke-linecap="butt" stroke-miterlimit="10" stroke-linejoin="miter" fill="none" stroke="#000000" d=""/>
<use data-text="d" xlink:href="#font_3_1" transform="matrix(9.963197,0,0,-9.9626,88.78723,7.8379976)"/>
<use data-text="=" xlink:href="#font_2_4" transform="matrix(9.963197,0,0,-9.9626,96.74069,7.8379976)"/>
<use data-text="5" xlink:href="#font_2_3" transform="matrix(9.963197,0,0,-9.9626,107.24191,7.8379976)"/>
</svg>
